<svg xmlns="http://www.w3.org/2000/svg" width="1200" height="330" viewBox="0 0 1200 330" role="img" aria-label="ncfigR R package banner">
  <defs>
    <linearGradient id="bg" x1="0" x2="1" y1="0" y2="1">
      <stop offset="0" stop-color="#f8fafc"/>
      <stop offset="1" stop-color="#eef6f7"/>
    </linearGradient>
  </defs>
  <rect width="1200" height="330" fill="url(#bg)"/>
  <rect x="42" y="38" width="1116" height="254" rx="18" fill="#ffffff" stroke="#d7dde5"/>
  <g transform="translate(86 78)">
    <text x="0" y="0" font-family="Arial, Helvetica, sans-serif" font-size="15" font-weight="700" fill="#0f766e" letter-spacing="2">R PACKAGE</text>
    <text x="0" y="58" font-family="Arial, Helvetica, sans-serif" font-size="54" font-weight="800" fill="#111827">ncfigR</text>
    <text x="0" y="98" font-family="Arial, Helvetica, sans-serif" font-size="22" fill="#475569">NC-style bioinformatics figure panels from tidy source-data tables</text>
    <g transform="translate(0 140)">
      <rect x="0" y="0" width="112" height="34" rx="7" fill="#ecfeff" stroke="#a5f3fc"/>
      <text x="18" y="23" font-family="Arial, Helvetica, sans-serif" font-size="13" font-weight="700" fill="#0e7490">UMAP</text>
      <rect x="130" y="0" width="122" height="34" rx="7" fill="#eff6ff" stroke="#bfdbfe"/>
      <text x="148" y="23" font-family="Arial, Helvetica, sans-serif" font-size="13" font-weight="700" fill="#1d4ed8">Heatmap</text>
      <rect x="270" y="0" width="118" height="34" rx="7" fill="#f0fdf4" stroke="#bbf7d0"/>
      <text x="288" y="23" font-family="Arial, Helvetica, sans-serif" font-size="13" font-weight="700" fill="#15803d">Network</text>
      <rect x="406" y="0" width="128" height="34" rx="7" fill="#fff7ed" stroke="#fed7aa"/>
      <text x="424" y="23" font-family="Arial, Helvetica, sans-serif" font-size="13" font-weight="700" fill="#c2410c">Benchmark</text>
    </g>
  </g>
  <g transform="translate(780 72)">
    <rect x="0" y="0" width="320" height="200" rx="14" fill="#f8fafc" stroke="#d7dde5"/>
    <line x1="42" y1="160" x2="282" y2="160" stroke="#cbd5e1" stroke-width="2"/>
    <line x1="42" y1="42" x2="42" y2="160" stroke="#cbd5e1" stroke-width="2"/>
    <circle cx="78" cy="112" r="9" fill="#2563eb" opacity="0.85"/>
    <circle cx="102" cy="88" r="8" fill="#2563eb" opacity="0.65"/>
    <circle cx="126" cy="122" r="7" fill="#2563eb" opacity="0.75"/>
    <circle cx="184" cy="82" r="9" fill="#dc2626" opacity="0.85"/>
    <circle cx="214" cy="105" r="8" fill="#dc2626" opacity="0.7"/>
    <circle cx="238" cy="72" r="7" fill="#dc2626" opacity="0.75"/>
    <rect x="58" y="178" width="58" height="8" rx="4" fill="#2563eb" opacity="0.7"/>
    <rect x="132" y="178" width="48" height="8" rx="4" fill="#16a34a" opacity="0.7"/>
    <rect x="196" y="178" width="72" height="8" rx="4" fill="#dc2626" opacity="0.7"/>
  </g>
</svg>
